<svg width="195" height="180" xmlns="http://www.w3.org/2000/svg">
 <!-- Created with Method Draw - http://github.com/duopixel/Method-Draw/ -->

 <g id="Layer_1">
  <title>Layer 1</title>
  <ellipse ry="71" rx="74" id="svg_2" cy="81.5" cx="89" opacity="undefined" stroke-dasharray="2,2" stroke="#84D3DB" fill="none"/>
  <ellipse ry="0.5" id="svg_3" cy="10.5" cx="94.5" opacity="undefined" stroke-dasharray="2,2" stroke="#84D3DB" fill="none"/>
  <ellipse ry="46.5" rx="51" id="svg_4" cy="83" cx="88.5" opacity="undefined" stroke-width="null" fill="#CBFFFF"/>
  <g transform="rotate(-22.863 89.5 73)" id="svg_48">
   <path id="svg_9" fill="#455058" d="m79.60637,105.02911l27.14476,0c4.7141,0 9.1463,-1.83583 12.47981,-5.16911c5.02023,-5.02045 9.23009,-8.13245 16.93498,-8.13245l6.72244,0l0,10.11673l-6.72244,0c-3.92667,0 -5.77197,1.1595 -9.78159,5.16911c-5.24452,5.24432 -12.21704,8.13246 -19.63321,8.13246l-27.14476,0l0,-10.11674z"/>
   <path id="svg_10" fill="#3C464D" d="m117.99646,100.98254c-3.15733,2.6196 -7.09132,4.04657 -11.24533,4.04657l-27.14476,0l0,10.11653l22.87025,0c3.66177,-2.11212 7.07069,-4.71753 10.13994,-7.78676c1.99074,-1.99052 3.78682,-4.12393 5.3799,-6.37634z"/>
   <circle transform="matrix(0.214843 0 0 0.214843 0 0)" id="svg_11" fill="#BAB8B9" r="196.17" cy="339.78254" cx="364.25278"/>
   <path id="svg_12" fill="#9E9C9D" d="m84.70266,112.99744c-23.27652,0 -42.14597,-18.86945 -42.14597,-42.14597c0,-17.41066 10.55782,-32.35406 25.61981,-38.78088c-18.40775,4.51859 -32.06488,21.12766 -32.06488,40.92931c0,23.27654 18.86944,42.14598 42.14596,42.14598c5.86607,0 11.45135,-1.19969 16.52594,-3.3651c-3.23038,0.79298 -6.60577,1.21666 -10.08086,1.21666z"/>
   <g transform="matrix(0.214843 0 0 0.214843 0 0)" id="svg_13">
    <circle id="svg_14" fill="#EFEDEE" r="48.22" cy="306.23258" cx="471.12277"/>
    <circle id="svg_15" fill="#EFEDEE" r="48.22" cy="428.75258" cx="432.01277"/>
    <circle id="svg_16" fill="#EFEDEE" r="48.22" cy="428.75258" cx="296.50277"/>
    <circle id="svg_17" fill="#EFEDEE" r="48.22" cy="306.23258" cx="257.38277"/>
    <circle id="svg_18" fill="#EFEDEE" r="48.22" cy="227.94258" cx="364.25277"/>
    <circle id="svg_19" fill="#EFEDEE" r="28.19" cy="339.78258" cx="364.25277"/>
   </g>
   <g transform="matrix(0.214843 0 0 0.214843 0 0)" id="svg_20">
    <path id="svg_21" fill="#455058" d="m424.14172,317.09058c5.55701,24.05103 28.21106,39.69199 52.15607,37.07904c0.59894,-4.71106 0.90796,-9.51306 0.90796,-14.38705c0,-29.18893 -11.073,-55.79099 -29.24603,-75.83701c-18.48596,10.11401 -28.79395,31.60602 -23.81799,53.14502z"/>
    <path id="svg_22" fill="#455058" d="m464.04974,392.71863c-16.88696,-15.04602 -42.58801,-16.54199 -61.25497,-2.32706c-18.668,14.21603 -24.05899,39.39099 -14.04398,59.67001c32.66498,-7.22296 60.013,-28.586 75.29895,-57.34296z"/>
    <path id="svg_23" fill="#455058" d="m325.71375,390.39258c-18.66696,-14.216 -44.36899,-12.71899 -61.25497,2.32697c15.28598,28.75708 42.634,50.12006 75.29999,57.34399c10.01401,-20.28098 4.62302,-45.45496 -14.04501,-59.67096z"/>
    <path id="svg_24" fill="#455058" d="m280.54877,263.94556c-18.173,20.04602 -29.246,46.64807 -29.246,75.83701c0,4.87399 0.30899,9.67599 0.90799,14.38705c23.94501,2.61295 46.599,-13.02802 52.15601,-37.07904c4.97601,-21.539 -5.33298,-43.03101 -23.81799,-53.14502z"/>
    <path id="svg_25" fill="#455058" d="m364.25378,226.83061c-16.90002,0 -32.92902,3.71796 -47.32501,10.37097c4.31699,22.20299 23.85901,38.967 47.32501,38.967s43.008,-16.76401 47.32501,-38.967c-14.39505,-6.65302 -30.42505,-10.37097 -47.32501,-10.37097z"/>
   </g>
   <path id="svg_26" d="m85.92426,72.99989c0,-4.22746 -3.43942,-7.66689 -7.6671,-7.66689c-4.22746,0 -7.66689,3.43942 -7.66689,7.66689s3.43942,7.6669 7.66689,7.6669c4.22768,0 7.6671,-3.43944 7.6671,-7.6669zm-12.11112,0c0,-2.4505 1.99352,-4.44424 4.44424,-4.44424s4.44446,1.99374 4.44446,4.44424c0,2.45073 -1.99374,4.44424 -4.44446,4.44424s-4.44424,-1.99352 -4.44424,-4.44424z"/>
   <path id="svg_27" d="m112.88211,63.09756c-1.26219,-5.46324 -6.05492,-9.27864 -11.65501,-9.27864c-4.10393,0 -7.98959,2.15274 -10.16272,5.63147c-1.85581,2.97107 -2.30762,6.70998 -1.2332,10.04155c1.87537,5.81516 8.13611,9.33836 14.08167,7.96487c6.43176,-1.48607 10.45533,-7.92749 8.96926,-14.35925zm-12.02046,11.43631c-1.72369,-0.06682 -3.33071,-0.62885 -4.67047,-1.56621c-4.77833,-3.34296 -4.8909,-10.62549 -0.26104,-14.14418c3.22265,4.01219 4.98285,8.99548 4.98285,14.17642c0,0.51088 -0.01718,1.02371 -0.05134,1.53397zm3.25036,-0.48619c0.01396,-0.34933 0.02363,-0.69887 0.02363,-1.04779c0,-5.68066 -1.85388,-11.15271 -5.25849,-15.63626c0.12289,-0.03395 0.24642,-0.0666 0.37146,-0.0954c0.65141,-0.1506 1.3172,-0.22687 1.97871,-0.22687c4.09103,0 7.59256,2.78867 8.51509,6.78151c1.01254,4.38387 -1.47748,8.77248 -5.63039,10.22481z"/>
   <path id="svg_28" d="m80.869,91.36725c-0.00064,0.01031 -0.00129,0.02042 -0.00194,0.03073c-0.17638,2.86386 0.66687,5.66455 2.42279,7.97046c2.28356,2.99878 5.75779,4.71881 9.53279,4.71924c5.9185,0.00064 11.06205,-4.51192 11.85461,-10.36597c0.86882,-6.4167 -3.73075,-12.53458 -10.14081,-13.45088c-0.04705,-0.00665 -0.09389,-0.01396 -0.14094,-0.02019c-6.78453,-0.90686 -13.08909,4.29814 -13.52651,11.11661zm3.23875,0.10486c0.19894,-2.44792 1.41131,-4.79982 3.40591,-6.31725c2.90897,-2.21309 7.03396,-2.36285 10.09053,-0.3618c-2.97343,4.87544 -7.65034,8.43796 -13.12196,9.99536c-0.34697,-1.07938 -0.46449,-2.20773 -0.37447,-3.31631zm17.37608,1.81693c-0.57943,4.27859 -4.34197,7.57579 -8.66183,7.57579c-2.64708,-0.00021 -5.08963,-1.15952 -6.75768,-3.18828c5.72084,-1.80446 10.63,-5.54424 13.90443,-10.59303c1.27531,1.80962 1.81371,3.99973 1.51508,6.20552z"/>
   <path id="svg_29" d="m56.4478,101.63954c2.10288,1.60144 4.60817,2.44792 7.24515,2.44792c6.79398,0 12.3741,-5.90109 11.95451,-12.69208c-0.00043,-0.00858 -0.00108,-0.01718 -0.0015,-0.02577c-0.25008,-3.9342 -2.51259,-7.6048 -5.9157,-9.59875c-2.32504,-1.36211 -5.08856,-1.88095 -7.75197,-1.50003c-3.0918,0.44193 -5.8723,2.05798 -7.8018,4.59184c-3.99952,5.25162 -2.98052,12.77757 2.27132,16.77687zm5.95824,-18.17506c0.01955,-0.00279 0.03911,-0.0058 0.05887,-0.00859c5.26774,-0.72876 10.17518,3.69229 9.97752,8.99913c-0.00043,0.00858 -0.00064,0.01718 -0.00085,0.02577c-0.03137,0.77493 -0.16586,1.55116 -0.40928,2.30785c-5.47163,-1.5574 -10.14854,-5.11993 -13.12175,-9.99536c1.05338,-0.68964 2.24532,-1.14211 3.49549,-1.3288zm-5.85984,3.61923c3.27442,5.0486 8.18337,8.78815 13.90421,10.59283c-1.66805,2.02898 -4.1106,3.18828 -6.75746,3.18828c-1.92564,0 -3.75588,-0.61874 -5.29266,-1.789c-3.74966,-2.85548 -4.54478,-8.17004 -1.8541,-11.99211z"/>
   <path id="svg_30" d="m65.25293,59.18484c-2.17271,-3.29869 -5.99519,-5.36592 -9.96549,-5.36592c-5.6001,0 -10.39281,3.81561 -11.65502,9.27864c-0.71994,3.11566 -0.18347,6.32498 1.51056,9.03717c2.16798,3.47078 6.07211,5.63103 10.1638,5.63145c5.25549,0 9.80028,-3.36208 11.38216,-8.29251c1.10429,-3.44179 0.55022,-7.27351 -1.436,-10.28883zm-1.22096,7.05588c-0.22536,4.46143 -3.91573,8.12064 -8.37909,8.29337c-0.03416,-0.51047 -0.05113,-1.02309 -0.05113,-1.53419c0,-5.18051 1.75978,-10.1627 4.98135,-14.1747c0.03931,0.02988 0.07884,0.0593 0.11752,0.0896c2.19398,1.72433 3.47208,4.53941 3.33135,7.32593zm-16.15554,4.18665c-1.23814,-1.98193 -1.63023,-4.32736 -1.10408,-6.60449c0.92232,-3.99286 4.42405,-6.78151 8.51487,-6.78151c0.79342,0 1.58533,0.11064 2.34974,0.32246c-3.40397,4.48357 -5.25785,9.9554 -5.25785,15.63606c0,0.34912 0.00945,0.69868 0.02341,1.04822c-1.87429,-0.65312 -3.4594,-1.91318 -4.52609,-3.62074z"/>
   <path id="svg_31" d="m66.51814,51.29303c0.42561,2.11984 1.42312,4.12283 2.8819,5.72556c2.2464,2.4679 5.51759,3.92583 8.85733,3.92583c3.14853,0 6.23453,-1.28819 8.46223,-3.51118c2.22599,-2.22147 3.50925,-5.31543 3.50925,-8.46008c0,-6.60104 -5.37043,-11.97148 -11.97148,-11.97148s-11.97148,5.37044 -11.97148,11.97148c0,0.77945 0.07906,1.55719 0.23225,2.31989zm19.7952,1.09119c-2.1624,5.08748 -8.78622,6.91837 -13.24722,3.62569c-1.25554,-0.92683 -2.2552,-2.19054 -2.86536,-3.62677c-0.00237,-0.0058 -0.00494,-0.01181 -0.00751,-0.01762c-0.01031,-0.02405 -0.191,-0.46964 -0.18198,-0.47308c2.62237,-1.0278 5.38998,-1.54816 8.24589,-1.54816s5.62373,0.52014 8.24611,1.54816c0.00214,0.00087 -0.18692,0.48491 -0.18993,0.49179zm-8.05618,-12.16013c4.71172,0 8.56321,3.74429 8.74046,8.41325c-2.79403,-1.00568 -5.72427,-1.51572 -8.74046,-1.51572c-3.01596,0 -5.94621,0.51004 -8.74024,1.51572c0.17725,-4.66896 4.02874,-8.41325 8.74024,-8.41325z"/>
   <path id="svg_32" d="m78.25737,116.75717c0.38156,0 0.76205,-0.00514 1.14146,-0.01482c0.0681,0.0088 0.13707,0.01482 0.20753,0.01482l27.14476,0c7.84673,0 15.224,-3.05569 20.77275,-8.60445c3.90669,-3.90692 5.36055,-4.69711 8.64227,-4.69711l6.72243,0c0.88989,0 1.61133,-0.72144 1.61133,-1.61133l0,-10.11653c0,-0.88986 -0.72144,-1.61131 -1.61133,-1.61131l-6.72243,0c-2.91563,0 -5.47786,0.4241 -7.83318,1.29637c-0.83444,0.30893 -1.26048,1.23621 -0.95132,2.07065c0.30916,0.83467 1.23599,1.26048 2.07065,0.95154c1.99095,-0.73734 4.18707,-1.09592 6.71385,-1.09592l5.11089,0l0,6.89389l-5.11111,0c-2.30182,0 -3.98575,0.38199 -5.63017,1.27702c-1.69382,0.92189 -3.28021,2.35339 -5.29092,4.36411c-4.94011,4.94009 -11.50807,7.66066 -18.49391,7.66066l-12.01874,0c1.22482,-0.49951 2.42793,-1.05466 3.60227,-1.66331c2.80499,-1.44675 5.45916,-3.19687 7.90301,-5.23056l0.51346,0c5.14442,0 9.98117,-2.00342 13.61913,-5.64114c1.46608,-1.46609 2.66663,-2.56372 3.77844,-3.45467c0.69437,-0.55666 0.8063,-1.57071 0.24986,-2.26509s-1.57072,-0.8063 -2.26511,-0.24986c-1.20612,0.96657 -2.49045,2.13919 -4.04182,3.69078c-2.24876,2.24876 -5.04817,3.74536 -8.09358,4.36839c7.44345,-7.84821 12.01682,-18.44424 12.01682,-30.08896c0,-13.09489 -5.79538,-25.39465 -15.89987,-33.74518c-0.686,-0.56697 -1.70157,-0.47029 -2.26853,0.21548s-0.4703,1.70155 0.21548,2.26852c9.36135,7.73628 14.73028,19.13049 14.73028,31.26117c0,15.68805 -8.95874,29.3222 -22.02849,36.05753c-5.30748,2.72034 -11.19526,4.26463 -17.20399,4.45412c-0.43248,0.01376 -0.86624,0.02299 -1.30216,0.02299c-22.35098,-0.00044 -40.53464,-18.1841 -40.53464,-40.53508s18.18367,-40.53464 40.53464,-40.53464c7.28146,0 14.42435,1.95507 20.6563,5.65402c0.76549,0.45439 1.75398,0.20216 2.20815,-0.5631c0.45419,-0.76527 0.20217,-1.75398 -0.5631,-2.20795c-6.72952,-3.99436 -14.4411,-6.10541 -22.30113,-6.10541c-24.12794,-0.00022 -43.7575,19.62912 -43.7575,43.75706c0,24.12773 19.62955,43.75728 43.75729,43.75728z"/>
   <g transform="matrix(0.214843 0 0 0.214843 0 0)" id="svg_33"/>
   <g transform="matrix(0.214843 0 0 0.214843 0 0)" id="svg_34"/>
   <g transform="matrix(0.214843 0 0 0.214843 0 0)" id="svg_35"/>
   <g transform="matrix(0.214843 0 0 0.214843 0 0)" id="svg_36"/>
   <g transform="matrix(0.214843 0 0 0.214843 0 0)" id="svg_37"/>
   <g transform="matrix(0.214843 0 0 0.214843 0 0)" id="svg_38"/>
   <g transform="matrix(0.214843 0 0 0.214843 0 0)" id="svg_39"/>
   <g transform="matrix(0.214843 0 0 0.214843 0 0)" id="svg_40"/>
   <g transform="matrix(0.214843 0 0 0.214843 0 0)" id="svg_41"/>
   <g transform="matrix(0.214843 0 0 0.214843 0 0)" id="svg_42"/>
   <g transform="matrix(0.214843 0 0 0.214843 0 0)" id="svg_43"/>
   <g transform="matrix(0.214843 0 0 0.214843 0 0)" id="svg_44"/>
   <g transform="matrix(0.214843 0 0 0.214843 0 0)" id="svg_45"/>
   <g transform="matrix(0.214843 0 0 0.214843 0 0)" id="svg_46"/>
   <g transform="matrix(0.214843 0 0 0.214843 0 0)" id="svg_47"/>
  </g>
 </g>
</svg>