<svg width="790" height="449" xmlns="http://www.w3.org/2000/svg">
 <!-- Created with Method Draw - http://github.com/duopixel/Method-Draw/ -->

 <g id="Layer_1">
  <title>Layer 1</title>
  <text font-style="normal" font-weight="normal" stroke="null" transform="matrix(3.4694056139747724,0,0,3.6269508838278792,-287.763812099543,-180.27311929567986) " xml:space="preserve" text-anchor="start" font-family="Comic " font-size="54" id="svg_1" y="101.40917" x="110.14741" opacity="undefined" stroke-opacity="null" stroke-dasharray="null" stroke-width="0" fill="#16427c">Quizzee</text>
  <g stroke-width="99" transform="rotate(0.3495580554008484 431.59365844726966,198.06770324707225) " id="svg_65" stroke="null">
   <path id="svg_37" fill="#efd176" d="m415.54395,264.08696c-2.11882,0 -4.01863,-1.42443 -4.46922,-3.49658c-2.08528,-9.5922 0.49461,-25.68094 1.05627,-28.24168c0.5208,-2.37539 2.94665,-3.8945 5.41651,-3.39384c2.46986,0.50067 4.05007,2.83172 3.52927,5.2061c-0.65492,2.98686 -2.65218,17.27442 -1.05312,24.63125c0.5166,2.3764 -1.06779,4.70443 -3.53975,5.20106c-0.31541,0.06346 -0.62977,0.09368 -0.93995,0.09368l-0.00001,0.00001zm0,0" stroke="null"/>
   <path id="svg_38" fill="#efd176" d="m443.26467,264.08696c-0.31018,0 -0.62453,-0.03022 -0.93995,-0.09368c-2.47196,-0.49663 -4.05636,-2.82468 -3.53975,-5.20106c1.59907,-7.35684 -0.39924,-21.6444 -1.05417,-24.63125c-0.51976,-2.37437 1.06045,-4.70543 3.53032,-5.2061c2.46986,-0.49966 4.89571,1.01846 5.41651,3.39384c0.56166,2.56074 3.14156,18.64948 1.05627,28.24168c-0.45059,2.07217 -2.35146,3.49658 -4.46922,3.49658l-0.00001,0l0,-0.00001zm0,0" stroke="null"/>
   <path id="svg_39" fill="#efd176" d="m479.62623,223.18564c-12.49601,0 -24.45237,-7.75879 -28.66066,-15.40876c-1.17992,-2.1457 -0.32799,-4.80416 1.904,-5.93947c2.23199,-1.1343 4.99736,-0.3153 6.17832,1.83039c1.52572,2.7733 5.67325,6.60332 11.49843,8.90819c3.47164,1.37405 10.27555,3.21956 16.83634,0.14406c2.26866,-1.0648 5.00574,-0.15816 6.11231,2.0238c1.10657,2.18096 0.16347,4.81221 -2.10521,5.87601c-3.82268,1.79312 -7.8214,2.56578 -11.76353,2.56578zm0,0" stroke="null"/>
   <path id="svg_40" fill="#efd176" d="m387.54975,217.7146c-0.25254,0 -0.50509,-0.00504 -0.75867,-0.01208c-5.60408,-0.1783 -13.80587,-2.38546 -21.05512,-11.889c-1.49219,-1.95733 -1.05208,-4.70744 0.98397,-6.14296c2.03499,-1.4345 4.89675,-1.01241 6.38894,0.94492c4.01863,5.26856 8.85357,8.13956 13.98401,8.30176c4.83913,0.14506 9.7799,-2.09735 13.20857,-6.02107c1.62422,-1.8586 4.50695,-2.10036 6.44029,-0.53895c1.93335,1.56143 2.18379,4.33371 0.56062,6.19131c-5.0466,5.77526 -12.38179,9.16608 -19.75261,9.16608l0,-0.00001zm0,0" stroke="null"/>
   <path id="svg_41" fill="#8ee2cf" d="m416.83705,149.75427c6.4319,6.18325 7.53323,15.80969 7.64326,20.74984c0.03982,1.79513 -1.4859,3.26288 -3.35322,3.2246c-5.13987,-0.10578 -15.15239,-1.16553 -21.58431,-7.34878c-6.43192,-6.18325 -7.53323,-15.80869 -7.64326,-20.74884c-0.03982,-1.79513 1.48694,-3.26288 3.35428,-3.2246c5.13882,0.10578 15.15135,1.16553 21.58325,7.34778zm0,0" stroke="null"/>
   <path id="svg_42" fill="#6fce91" d="m412.04612,163.70939c-0.51451,0 -1.02902,-0.18838 -1.42198,-0.56614l-7.71347,-7.41527c-0.78591,-0.75553 -0.78591,-1.9805 -0.00104,-2.73502c0.78592,-0.75553 2.06014,-0.75553 2.84605,0l7.71347,7.41527c0.78592,0.75452 0.78592,1.97949 0,2.73502c-0.39296,0.37675 -0.90746,0.56614 -1.42303,0.56614zm0,0" stroke="null"/>
   <path id="svg_43" fill="#8ee2cf" d="m441.97157,149.75427c-6.4319,6.18325 -7.53323,15.80969 -7.64326,20.74984c-0.04086,1.79513 1.4859,3.26288 3.35322,3.2246c5.13987,-0.10578 15.15239,-1.16553 21.58431,-7.34878c6.4319,-6.18325 7.53323,-15.80869 7.64326,-20.74884c0.03982,-1.79513 -1.48694,-3.26288 -3.35428,-3.2246c-5.13882,0.10578 -15.15135,1.16553 -21.58325,7.34778zm0,0" stroke="null"/>
   <path id="svg_44" fill="#6fce91" d="m446.76145,163.70939c-0.51451,0 -1.03007,-0.18838 -1.42303,-0.56614c-0.78486,-0.75553 -0.78486,-1.9805 0.00104,-2.73502l7.71347,-7.41527c0.78486,-0.75553 2.05909,-0.75553 2.84501,0c0.78592,0.75553 0.78592,1.97949 0,2.73502l-7.71347,7.41527c-0.39296,0.37675 -0.90852,0.56614 -1.42302,0.56614zm0,0" stroke="null"/>
   <path id="svg_45" fill="#8ee2cf" d="m441.63311,152.88921c0,8.74399 -6.30092,16.30029 -9.85744,19.86738c-1.29204,1.29649 -3.45069,1.29649 -4.74272,0c-3.55652,-3.56711 -9.85744,-11.1234 -9.85744,-19.86738s6.30092,-16.30029 9.85744,-19.8684c1.29204,-1.29649 3.45069,-1.29649 4.74272,0c3.55652,3.56811 9.85744,11.12441 9.85744,19.8684zm0,0" stroke="null"/>
   <path id="svg_46" fill="#6fce91" d="m429.40431,160.06673c-1.11181,0 -2.01194,-0.86534 -2.01194,-1.93416l0,-10.48674c0,-1.06882 0.90013,-1.93416 2.01194,-1.93416c1.11181,0 2.01194,0.86534 2.01194,1.93416l0,10.48674c0,1.06781 -0.90013,1.93416 -2.01194,1.93416zm0,0" stroke="null"/>
   <path id="svg_47" fill="#f7ef87" d="m429.40431,165.6103c18.8682,0 32.35654,14.28554 34.16415,35.91886c1.88095,22.50368 -6.92441,39.28953 -34.16415,39.28953c-27.23973,0 -36.0451,-16.78585 -34.16415,-39.28953c1.80761,-21.63331 15.29596,-35.91886 34.16415,-35.91886zm0,0" stroke="null"/>
   <g transform="matrix(0.2682581764662688,0,0,0.2578872309278294,-7002.732335831088,-1957.5295720392514) " id="svg_48" fill="#efd176" stroke="null">
    <path id="svg_49" d="m27663.11721,8240.13515c-47.75781,17.6289 -80.00781,65.98046 -85.3086,131.96875c-6.99218,87.01953 25.63672,151.98046 126.51563,152.34375c-122.44141,-74.91407 -89.60938,-210.07813 -41.20703,-284.3125zm0,0" stroke="null"/>
    <path id="svg_50" d="m27692.7969,8340.15858c-1.91797,0 -3.83985,-0.73047 -5.30469,-2.19531c-2.92578,-2.92969 -2.92578,-7.67969 0.0039,-10.60547l12.36329,-12.36719c2.92968,-2.92968 7.67968,-2.92578 10.60937,0l12.36328,12.36719c2.92969,2.92969 2.92969,7.67578 0,10.60547c-2.92969,2.92969 -7.67578,2.92969 -10.60547,0l-7.0625,-7.0625l-7.0625,7.0625c-1.46484,1.46484 -3.38281,2.19531 -5.30468,2.19531zm0,0" stroke="null"/>
    <path id="svg_51" d="m27763.49611,8340.15858c-1.92187,0 -3.83984,-0.73047 -5.30468,-2.19531c-2.92969,-2.92969 -2.92969,-7.67969 0,-10.60547l12.36718,-12.36719c2.92579,-2.92968 7.67579,-2.92578 10.60547,0l12.36328,12.36719c2.92969,2.92969 2.92969,7.67578 0,10.60547c-2.92968,2.92969 -7.67578,2.92969 -10.60546,0l-7.0625,-7.0625l-7.0625,7.0625c-1.46485,1.46484 -3.38282,2.19531 -5.30079,2.19531zm0,0" stroke="null"/>
    <path id="svg_52" d="m27622.10158,8340.15858c-1.92187,0 -3.83984,-0.73047 -5.30468,-2.19531c-2.92969,-2.92969 -2.92969,-7.67969 0,-10.60547l12.36718,-12.36719c2.92969,-2.92968 7.67969,-2.92578 10.60547,0l12.36719,12.36719c2.92578,2.92969 2.92578,7.67578 0,10.60547c-2.93359,2.92969 -7.67969,2.92969 -10.60938,0l-7.0625,-7.0625l-7.0625,7.0625c-1.46484,1.46484 -3.38281,2.19531 -5.30078,2.19531zm0,0" stroke="null"/>
    <path id="svg_53" d="m27752.87893,8485.09218c-1.92188,0 -3.83985,-0.73047 -5.30469,-2.19532l-7.0625,-7.0625l-7.0625,7.0625c-2.92969,2.92578 -7.67578,2.92578 -10.60547,0c-2.92969,-2.92968 -2.92969,-7.67968 0,-10.60937l12.36328,-12.36328c1.41016,-1.40625 3.31641,-2.19532 5.30469,-2.19532c1.99219,0 3.89844,0.78907 5.30469,2.19532l12.36718,12.36718c2.92579,2.92579 2.92579,7.67579 -0.0039,10.60547c-1.46094,1.46485 -3.38281,2.19532 -5.30078,2.19532zm0,0" stroke="null"/>
    <path id="svg_54" d="m27682.17971,8485.09218c-1.91797,0 -3.83594,-0.73047 -5.30078,-2.19532l-7.0625,-7.0625l-7.0625,7.0625c-2.92969,2.92578 -7.67969,2.92578 -10.60938,0c-2.92578,-2.92968 -2.92578,-7.67968 0,-10.60937l12.36719,-12.36328c1.40625,-1.40625 3.3125,-2.19532 5.30469,-2.19532c1.98828,0 3.89843,0.78907 5.30468,2.19532l12.36329,12.36718c2.92968,2.92579 2.92968,7.67579 0,10.60547c-1.46485,1.46485 -3.38282,2.19532 -5.30469,2.19532zm0,0" stroke="null"/>
   </g>
   <path id="svg_55" fill="#eda1ab" d="m415.53033,213.89363c0,-3.4301 -3.63197,-6.21044 -8.11167,-6.21044c-4.48074,0 -8.11271,2.78035 -8.11271,6.21044c0,3.4301 3.63197,6.21044 8.11271,6.21044c4.4797,0 8.11167,-2.78035 8.11167,-6.21044zm0,0" stroke="null"/>
   <path id="svg_56" fill="#eda1ab" d="m459.50267,213.89363c0,-3.4301 -3.63197,-6.21044 -8.11271,-6.21044c-4.4797,0 -8.11167,2.78035 -8.11167,6.21044c0,3.4301 3.63197,6.21044 8.11167,6.21044c4.48076,0 8.11271,-2.78035 8.11271,-6.21044zm0,0" stroke="null"/>
   <path id="svg_57" fill="#4e5660" d="m412.14567,209.63245c-1.11075,0 -2.01194,-0.86534 -2.01194,-1.93416l0,-2.75415c0,-1.06781 0.90118,-1.93416 2.01194,-1.93416c1.11181,0 2.01194,0.86635 2.01194,1.93416l0,2.75415c0,1.06882 -0.90013,1.93416 -2.01194,1.93416zm0,0" stroke="null"/>
   <path id="svg_58" fill="#4e5660" d="m446.66191,209.63245c-1.11075,0 -2.01194,-0.86534 -2.01194,-1.93416l0,-2.75415c0,-1.06781 0.90118,-1.93416 2.01194,-1.93416c1.11181,0 2.01194,0.86635 2.01194,1.93416l0,2.75415c0,1.06882 -0.90013,1.93416 -2.01194,1.93416zm0,0" stroke="null"/>
   <path id="svg_59" fill="#4e5660" d="m412.14567,204.03147c-1.45865,0 -2.88901,-0.38079 -4.13494,-1.10005c-0.95252,-0.55002 -1.26164,-1.73772 -0.6895,-2.65342c0.57319,-0.91671 1.80865,-1.21287 2.76117,-0.66285c1.24175,0.71725 2.88693,0.71725 4.12866,0c0.95148,-0.54902 2.18798,-0.25285 2.76013,0.66285c0.57214,0.9157 0.26406,2.10339 -0.68846,2.65342c-1.24698,0.71926 -2.67735,1.10005 -4.13704,1.10005l-0.00001,0l-0.00001,0zm0,0" stroke="null"/>
   <path id="svg_60" fill="#4e5660" d="m433.95317,211.74794c-0.25359,0 -0.51137,-0.04634 -0.76077,-0.14406c-2.60504,-1.02449 -6.55661,-1.03054 -8.27514,-1.03054c-0.00943,0 -0.01991,0 -0.03039,0l-0.03248,0c-1.11181,0 -2.01194,-0.86534 -2.01194,-1.93416c0,-1.06781 0.90013,-1.93416 2.01194,-1.93416l0.03248,0l0.03563,0c2.11567,0 6.45915,0.00705 9.79352,1.31765c1.02797,0.40396 1.52152,1.53322 1.10028,2.52246c-0.31856,0.74948 -1.06989,1.20281 -1.86314,1.20281l0.00001,0zm0,0" stroke="null"/>
   <path id="svg_61" fill="#4e5660" d="m484.89918,194.56418c-2.41223,0 -4.36863,-1.87975 -4.36863,-4.19873l0,-7.79605c0,-3.05637 2.25295,-5.73597 5.35678,-6.37061c2.36613,-0.48455 3.94948,-2.61313 3.68121,-4.95022c-0.23577,-2.04799 -2.02241,-3.75045 -4.158,-3.96099c-1.45237,-0.14204 -2.81461,0.31833 -3.83316,1.29749c-1.70595,1.64101 -4.47236,1.64101 -6.17832,0.00101c-1.70595,-1.64 -1.707,-4.29947 -0.00104,-5.93947c2.87016,-2.7602 6.84163,-4.11612 10.90323,-3.71518c6.23701,0.6145 11.2637,5.40556 11.95112,11.39539c0.70313,6.11877 -3.08812,11.73992 -8.98455,13.67306l0,6.36458c0,2.31997 -1.95536,4.19974 -4.36863,4.19974l-0.00001,0l0,-0.00002zm0,0" stroke="null"/>
   <path id="svg_62" fill="#9aa3b1" d="m484.89918,206.57005c-2.41223,0 -4.36863,-1.88077 -4.36863,-4.19974l0,-0.54498c0,-2.31897 1.9564,-4.19974 4.36863,-4.19974c2.41327,0 4.36863,1.88075 4.36863,4.19974l0,0.54498c0,2.31897 -1.95536,4.19974 -4.36863,4.19974zm0,0" stroke="null"/>
   <!-- <path stroke="null" id="svg_63" fill="#4e5660" d="m252.92518,59.46152c-0.33756,0 -0.6774,-0.01565 -1.01801,-0.04837c-4.54555,-0.4332 -8.20825,-3.81695 -8.71001,-8.04575c-0.51244,-4.32128 2.24986,-8.28974 6.54721,-9.65476l0,-4.49413c0,-1.63817 1.42583,-2.9655 3.18387,-2.9655c1.7588,0 3.18387,1.32732 3.18387,2.9655l0,5.5042c0,2.15886 -1.64196,4.05026 -3.90404,4.49839c-1.72444,0.34215 -2.87762,1.84517 -2.68212,3.49543c0.17183,1.44612 1.47394,2.64825 3.0296,2.79692c1.05849,0.10101 2.05206,-0.22478 2.79438,-0.91689c1.2433,-1.15803 3.25947,-1.15803 4.50278,0s1.2433,3.03592 0,4.19395c-1.85121,1.72424 -4.33171,2.67101 -6.92753,2.67101zm0,0"/>
   <path stroke="null" id="svg_64" fill="#9aa3b1" d="m252.92824,32.0913c-1.75804,0 -3.18387,-1.32804 -3.18387,-2.9655l0,-0.38482c0,-1.63746 1.42583,-2.96479 3.18387,-2.96479c1.7588,0 3.18387,1.32732 3.18387,2.96479l0,0.38482c0,1.63746 -1.42507,2.9655 -3.18387,2.9655zm0,0"/> -->
  </g>
  <g id="svg_8">
   <path d="m225.27786,125.5c0,6.22862 -5.04925,11.27787 -11.27787,11.27787s-11.27787,-5.04925 -11.27787,-11.27787s5.04925,-11.27787 11.27787,-11.27787s11.27787,5.04925 11.27787,11.27787zm0,0" fill="#cfd2fc" id="svg_5"/>
   <path d="m213.99999,139.59734c-7.78566,0 -14.09734,-6.31168 -14.09734,-14.09734s6.31168,-14.09734 14.09734,-14.09734s14.09734,6.31168 14.09734,14.09734c-0.00872,7.78199 -6.31535,14.08862 -14.09734,14.09734zm0,-27.25485c-7.26665,0 -13.15752,5.89087 -13.15752,13.15752s5.89087,13.15752 13.15752,13.15752s13.15752,-5.89087 13.15752,-13.15752c-0.00826,-7.2632 -5.89431,-13.14926 -13.15752,-13.15752zm0,0" fill="#8690fa" id="svg_6"/>
   <path d="m220.57875,125.5c0,3.63332 -2.94543,6.57876 -6.57876,6.57876s-6.57876,-2.94543 -6.57876,-6.57876s2.94543,-6.57876 6.57876,-6.57876s6.57876,2.94543 6.57876,6.57876zm0,0" fill="#5153ff" id="svg_7"/>
  </g>
 </g>
</svg>