<?xml version="1.0" standalone="no"?>
<!DOCTYPE svg PUBLIC "-//W3C//DTD SVG 20010904//EN"
 "http://www.w3.org/TR/2001/REC-SVG-20010904/DTD/svg10.dtd">
<svg version="1.0" xmlns="http://www.w3.org/2000/svg"
 width="1323.000000pt" height="606.000000pt" viewBox="0 0 1323.000000 606.000000"
 preserveAspectRatio="xMidYMid meet">

<g transform="translate(0.000000,606.000000) scale(0.100000,-0.100000)"
fill="#000000" stroke="none">
<path d="M0 3030 l0 -3030 6615 0 6615 0 0 3030 0 3030 -6615 0 -6615 0 0
-3030z m5897 1890 c61 -27 98 -62 128 -121 70 -136 20 -297 -115 -373 -48 -27
-64 -31 -130 -30 -61 0 -84 5 -125 26 -100 52 -150 137 -149 253 1 203 201
329 391 245z m-3194 -257 c391 -75 680 -368 772 -783 26 -117 31 -375 11 -499
-52 -308 -223 -585 -447 -724 -38 -23 -69 -45 -69 -49 0 -7 59 -61 373 -342
97 -87 177 -161 177 -163 0 -1 -39 -3 -87 -3 l-88 0 -181 163 c-99 89 -214
192 -255 229 l-75 67 -98 -25 c-211 -52 -489 -17 -675 85 -344 190 -532 535
-532 980 0 210 34 365 115 534 74 154 163 264 288 357 226 167 493 227 771
173z m6963 -483 c260 -67 440 -244 513 -505 19 -67 32 -226 25 -300 l-6 -70
-674 3 c-626 2 -675 1 -681 -15 -9 -23 13 -168 37 -245 71 -230 275 -394 525
-422 81 -9 219 8 304 37 79 28 184 98 230 154 40 48 88 140 107 203 l15 50 66
0 65 0 -7 -37 c-30 -165 -172 -352 -330 -435 -123 -64 -207 -83 -380 -83 -168
0 -237 13 -340 67 -140 72 -234 159 -303 281 -85 148 -122 301 -122 500 0 423
207 724 560 816 106 28 289 28 396 1z m1870 -13 c149 -49 298 -167 374 -297
22 -36 54 -108 71 -160 31 -90 33 -103 33 -248 l1 -152 -670 0 c-368 0 -675
-4 -682 -8 -16 -10 0 -142 28 -237 88 -297 357 -472 672 -436 170 19 277 70
382 183 58 63 82 107 128 241 5 14 18 17 72 17 36 0 65 -2 65 -4 0 -23 -49
-155 -77 -206 -130 -238 -368 -359 -683 -347 -174 7 -291 46 -416 137 -122 91
-228 254 -274 420 -59 216 -42 504 40 695 34 80 124 207 179 253 100 85 207
138 346 171 22 6 105 9 185 7 125 -2 156 -6 226 -29z m-7516 -557 c5 -513 7
-570 24 -620 80 -241 255 -370 501 -370 222 1 396 105 485 292 70 149 72 169
77 751 l5 517 64 0 64 0 0 -825 0 -825 -65 0 -65 0 -2 178 -3 177 -34 -70
c-42 -87 -145 -191 -230 -235 -140 -70 -303 -92 -453 -62 -136 28 -216 70
-309 162 -85 84 -125 155 -161 285 -21 77 -22 99 -26 648 l-3 568 63 -3 63 -3
5 -565z m1820 -255 l0 -825 -62 0 -63 0 2 822 c2 453 3 824 3 826 0 1 27 2 60
2 l60 0 0 -825z m1360 772 c0 -50 -7 -63 -159 -312 -317 -521 -658 -1081 -685
-1127 l-28 -48 446 0 446 0 0 -55 0 -55 -517 2 -518 3 -3 50 c-3 50 -1 52 432
765 l434 715 -421 5 -422 5 -3 39 c-6 71 -44 66 503 66 l495 0 0 -53z m1230
-1 c0 -54 -3 -60 -435 -768 l-435 -713 445 -3 445 -2 0 -55 0 -55 -515 0 -515
0 0 60 c0 60 1 62 139 288 76 125 241 396 366 602 125 206 256 422 292 480
l64 105 -421 3 -420 2 0 55 0 55 495 0 495 0 0 -54z"/>
<path d="M5683 4915 c-101 -44 -163 -136 -163 -242 0 -152 110 -263 260 -263
150 0 260 111 260 263 0 107 -63 200 -165 243 -44 18 -150 18 -192 -1z m221
-62 c53 -36 96 -118 96 -183 0 -64 -43 -147 -96 -183 -58 -40 -142 -48 -209
-18 -65 29 -83 46 -111 106 -29 62 -30 125 -3 185 27 60 45 79 104 107 69 33
159 28 219 -14z"/>
<path d="M2417 4559 c-163 -13 -314 -79 -464 -203 -43 -35 -146 -176 -181
-248 -87 -174 -118 -337 -109 -568 6 -181 35 -302 107 -446 134 -269 368 -433
660 -462 161 -16 317 11 455 80 354 177 537 594 470 1069 -55 395 -289 675
-630 758 -95 23 -189 29 -308 20z"/>
<path d="M9365 4084 c-91 -22 -119 -31 -185 -62 -187 -89 -325 -313 -333 -538
l-2 -69 615 0 615 0 -2 83 c-3 140 -35 242 -109 348 -74 106 -174 176 -311
220 -47 15 -248 28 -288 18z"/>
<path d="M11140 4074 c-74 -16 -188 -69 -246 -114 -130 -104 -218 -283 -238
-487 -5 -48 -3 -53 17 -58 12 -3 290 -4 617 -3 l595 3 0 95 c-1 146 -43 265
-132 373 -138 165 -381 241 -613 191z"/>
</g>
</svg>
